<?xml version="1.0" encoding="utf-8"?>
<!-- Generator: Adobe Illustrator 26.3.1, SVG Export Plug-In . SVG Version: 6.00 Build 0)  -->
<svg version="1.1" id="图层_1" xmlns="http://www.w3.org/2000/svg" xmlns:xlink="http://www.w3.org/1999/xlink" x="0px" y="0px"
	 viewBox="0 0 1451.34 1451.34" style="enable-background:new 0 0 1451.34 1451.34;" xml:space="preserve">
<style type="text/css">
	.st0{fill:#040000;}
</style>
<path class="st0" d="M1155.75,1421.3L742.53,907.76l396.21-383.45c7.37-7.65,4.82-29.76-15.02-29.76H927.6
	c-9.92,0-19.84,5.1-29.76,15.02L522.89,888.49V21.26C522.89,7.09,515.81,0,501.64,0H354.55c-14.17,0-21.26,7.09-21.26,21.26V1429.8
	c0,14.17,7.09,21.26,21.26,21.26h147.09c14.17,0,21.26-7.09,21.26-21.26v-308.92l87.29-83.04l313.17,398.47
	c8.5,9.92,18.42,15.02,29.76,15.02h189.6c9.92,0,15.59-2.83,17-8.5L1155.75,1421.3z"/>
</svg>
